<svg width="333" height="52" viewBox="0 0 333 52" fill="none" xmlns="http://www.w3.org/2000/svg">
<path d="M79.3506 15.6471C79.3506 15.0821 79.4774 14.5171 79.7311 13.9637C79.9847 13.4102 80.3422 12.926 80.8149 12.4994C81.2876 12.0728 81.8526 11.7268 82.4983 11.4617C83.144 11.1965 83.8473 11.0581 84.5968 11.0581H90.2235C93.5326 11.0581 96.0923 11.8076 97.9025 13.3065C99.7127 14.8054 100.624 16.7309 100.624 19.0946C100.624 21.931 99.2976 24.2139 96.6573 25.955C96.4382 26.0818 96.4382 26.2086 96.6573 26.3355C98.4214 27.2464 99.7819 28.4685 100.727 30.0021C101.673 31.5356 102.146 33.1036 102.146 34.7063C102.146 36.3782 101.777 37.8079 101.062 39.0071C100.335 40.2062 99.3784 41.1862 98.2023 41.9588C97.0147 42.7313 95.6772 43.2963 94.1783 43.6652C92.6794 44.0342 91.1459 44.2071 89.5662 44.2071H79.7311C79.4774 44.2071 79.3506 44.0803 79.3506 43.8266V15.6471ZM88.7591 24.4791C90.5578 24.4791 91.9645 24.1102 92.9907 23.3722C94.0169 22.6343 94.5242 21.6773 94.5242 20.5128C94.5242 19.1868 94.1783 18.2298 93.4865 17.6303C92.7947 17.0307 91.8146 16.7309 90.5578 16.7309H85.6806V24.4907H88.7591V24.4791ZM85.6806 38.5228H89.0359C91.0882 38.5228 92.7255 38.2 93.9592 37.5543C95.1929 36.9086 95.804 35.7556 95.804 34.0837C95.804 33.2074 95.5965 32.5041 95.1929 31.9852C94.7779 31.4664 94.2359 31.0744 93.5557 30.7976C92.8754 30.5324 92.0913 30.3595 91.192 30.2788C90.2926 30.1981 89.3587 30.1635 88.3786 30.1635H85.6806V38.5228Z" fill="#2E8544"/>
<path d="M110.746 15.59C109.858 15.59 109.074 15.2786 108.382 14.6675C107.691 14.0564 107.345 13.2378 107.345 12.2347C107.345 11.2892 107.691 10.5052 108.382 9.89408C109.074 9.28299 109.87 8.97168 110.746 8.97168C111.599 8.97168 112.349 9.28299 112.994 9.89408C113.64 10.5052 113.963 11.2892 113.963 12.2347C113.963 13.2378 113.64 14.0564 112.994 14.6675C112.349 15.2902 111.599 15.59 110.746 15.59ZM107.956 44.1961C107.702 44.1961 107.575 44.0693 107.575 43.8156V22.6925C107.575 21.6894 107.783 20.8938 108.186 20.3058C108.602 19.7177 109.097 19.2911 109.697 19.0029C110.296 18.7146 110.942 18.5417 111.634 18.484C112.326 18.4264 112.96 18.3918 113.525 18.3918C113.779 18.3918 113.905 18.5186 113.905 18.7723V40.0453C113.905 41.083 113.744 41.8901 113.41 42.4551C113.075 43.02 112.649 43.4351 112.107 43.6888C111.565 43.9424 110.942 44.0923 110.216 44.1385C109.501 44.173 108.74 44.1961 107.956 44.1961Z" fill="#2E8544"/>
<path d="M120.11 24.1107C120.11 23.0038 120.329 22.1275 120.768 21.4588C121.206 20.8016 121.748 20.2942 122.37 19.9483C123.004 19.6024 123.65 19.3718 124.33 19.268C125.011 19.1527 125.587 19.1066 126.06 19.1066C126.314 19.1066 126.44 19.2335 126.44 19.4871V21.943C126.44 22.1044 126.475 22.1852 126.533 22.1852C126.59 22.1852 126.648 22.139 126.671 22.0468C127.201 21.1936 127.905 20.4672 128.769 19.8676C129.634 19.268 130.695 18.9683 131.963 18.9683C133.197 18.9683 134.281 19.245 135.226 19.7984C136.172 20.3519 137.037 21.0783 137.832 22.0007C137.924 22.0929 138.005 22.139 138.074 22.139C138.201 22.139 138.282 22.0929 138.316 22.0007C138.789 21.4357 139.296 20.9514 139.85 20.5594C140.403 20.1674 140.98 19.8445 141.579 19.6139C142.179 19.3833 142.79 19.2104 143.401 19.1181C144.012 19.0259 144.589 18.9798 145.131 18.9798C146.48 18.9798 147.713 19.245 148.82 19.7638C149.927 20.2827 150.873 20.986 151.657 21.8623C152.441 22.7386 153.052 23.7648 153.478 24.9063C153.905 26.0593 154.113 27.2815 154.113 28.5728V43.8502C154.113 44.1039 153.986 44.2307 153.732 44.2307C152.948 44.2307 152.187 44.1615 151.461 44.0232C150.734 43.8848 150.1 43.6427 149.547 43.3083C148.993 42.9739 148.555 42.5358 148.221 41.9823C147.886 41.4289 147.725 40.7601 147.725 39.9761V29.1032C147.725 28.4691 147.667 27.858 147.564 27.2584C147.448 26.6588 147.275 26.1284 147.022 25.6788C146.768 25.2176 146.41 24.8486 145.961 24.5719C145.5 24.2836 144.946 24.1453 144.277 24.1453C143.643 24.1453 143.09 24.2606 142.594 24.4796C142.11 24.6987 141.683 24.987 141.337 25.3559C140.991 25.7134 140.726 26.1169 140.553 26.5666C140.38 27.0047 140.288 27.4659 140.288 27.9387V43.8733C140.288 44.1269 140.161 44.2538 139.908 44.2538C139.308 44.2538 138.651 44.1961 137.947 44.0923C137.244 43.977 136.587 43.781 136.01 43.4812C135.422 43.1815 134.938 42.7548 134.546 42.1783C134.154 41.6134 133.958 40.887 133.958 39.9992V29.1263C133.958 28.5267 133.9 27.9387 133.797 27.3506C133.681 26.7626 133.508 26.2438 133.255 25.771C133.001 25.2983 132.644 24.9178 132.194 24.618C131.733 24.3182 131.145 24.1683 130.418 24.1683C129.254 24.1683 128.308 24.5373 127.582 25.2752C126.855 26.0132 126.498 26.901 126.498 27.9502V40.149C126.498 41.1291 126.279 41.8901 125.864 42.4435C125.437 42.997 124.907 43.4005 124.284 43.6773C123.65 43.9424 123.004 44.1154 122.324 44.173C121.644 44.2422 121.044 44.2653 120.502 44.2653C120.249 44.2653 120.122 44.1384 120.122 43.8848V24.1107H120.11Z" fill="#2E8544"/>
<path d="M171.925 18.9565C173.724 18.9565 175.384 19.2794 176.918 19.9251C178.451 20.5708 179.766 21.447 180.884 22.5539C182.003 23.6608 182.89 24.9637 183.536 26.4742C184.182 27.9846 184.505 29.6219 184.505 31.3975C184.505 33.1732 184.193 34.8335 183.559 36.4131C182.925 37.9927 182.049 39.3648 180.907 40.5524C179.777 41.74 178.44 42.6739 176.918 43.3657C175.384 44.0576 173.724 44.4035 171.925 44.4035C170.127 44.4035 168.466 44.0576 166.933 43.3657C165.399 42.6739 164.073 41.74 162.943 40.5524C161.813 39.3648 160.914 37.9927 160.268 36.4131C159.623 34.8335 159.3 33.1616 159.3 31.3975C159.3 29.6334 159.623 27.9961 160.268 26.4742C160.914 24.9637 161.802 23.6493 162.943 22.5539C164.073 21.447 165.411 20.5823 166.933 19.9251C168.466 19.2794 170.127 18.9565 171.925 18.9565ZM171.925 39.1919C172.905 39.1919 173.782 38.9497 174.554 38.4539C175.327 37.9697 175.972 37.347 176.491 36.5861C177.01 35.8251 177.414 34.9834 177.702 34.061C177.99 33.127 178.128 32.2392 178.128 31.386C178.128 30.5328 177.99 29.6795 177.702 28.8032C177.414 27.9385 177.01 27.1544 176.468 26.4626C175.926 25.7708 175.281 25.2059 174.531 24.7792C173.77 24.3526 172.905 24.1451 171.925 24.1451C170.945 24.1451 170.069 24.3526 169.296 24.7792C168.524 25.2059 167.878 25.7593 167.359 26.4626C166.84 27.1544 166.437 27.9385 166.149 28.8032C165.86 29.668 165.722 30.5328 165.722 31.386C165.722 32.2623 165.86 33.1616 166.149 34.084C166.437 34.9949 166.829 35.8366 167.359 36.5861C167.878 37.347 168.524 37.9697 169.296 38.4539C170.069 38.9497 170.945 39.1919 171.925 39.1919Z" fill="#2E8544"/>
<path d="M189.706 15.6483C189.706 14.5184 189.902 13.6421 190.294 13.0195C190.686 12.3968 191.182 11.9587 191.781 11.6704C192.381 11.3822 193.038 11.2208 193.741 11.1746C194.445 11.1285 195.102 11.1055 195.702 11.1055C195.955 11.1055 196.082 11.2323 196.082 11.486V24.4458H209.411V15.6483C209.411 14.5184 209.607 13.6421 209.999 13.0425C210.391 12.443 210.887 12.0048 211.486 11.7166C212.086 11.4283 212.743 11.2669 213.446 11.2208C214.15 11.1746 214.807 11.1516 215.406 11.1516C215.66 11.1516 215.787 11.2784 215.787 11.5321V40.0921C215.787 41.0722 215.626 41.8332 215.291 42.3866C214.957 42.9401 214.519 43.3436 213.965 43.6203C213.412 43.8855 212.778 44.0585 212.074 44.1161C211.371 44.1853 210.633 44.2084 209.872 44.2084C209.561 44.2084 209.399 44.0815 209.399 43.8279V30.1186H196.07V40.0921C196.07 41.0722 195.851 41.8447 195.436 42.4097C195.01 42.9746 194.491 43.3897 193.88 43.6434C193.269 43.8971 192.623 44.0585 191.943 44.1161C191.262 44.1853 190.674 44.2084 190.167 44.2084C189.856 44.2084 189.694 44.0815 189.694 43.8279V15.6483H189.706Z" fill="#1E2E5C"/>
<path d="M245.637 29.5876C245.695 30.118 245.603 30.6253 245.349 31.098C245.095 31.5708 244.761 31.9974 244.335 32.3779C243.908 32.7584 243.412 33.0812 242.847 33.3464C242.282 33.6116 241.717 33.8076 241.141 33.9345L228.711 35.1682C228.999 36.621 229.657 37.6817 230.694 38.362C231.732 39.0423 233.058 39.3767 234.661 39.3767C235.918 39.3767 237.117 39.2268 238.258 38.927C239.388 38.6272 240.553 38.2121 241.752 37.6702C242.063 37.5434 242.305 37.4857 242.455 37.4857C242.743 37.4857 242.985 37.578 243.193 37.7509C243.401 37.9239 243.527 38.1545 243.597 38.4312C243.654 38.7194 243.643 39.0192 243.55 39.3305C243.458 39.6418 243.262 39.9416 242.985 40.2299C242.478 40.7026 241.913 41.1984 241.279 41.7173C240.645 42.2361 239.918 42.7088 239.1 43.1355C238.281 43.5621 237.359 43.908 236.333 44.1732C235.306 44.4384 234.176 44.5767 232.954 44.5767C231.029 44.5767 229.357 44.2308 227.916 43.539C226.486 42.8472 225.287 41.9133 224.318 40.7487C223.361 39.5842 222.635 38.2467 222.162 36.7593C221.689 35.2604 221.447 33.6923 221.447 32.055C221.447 30.2909 221.712 28.596 222.254 26.9703C222.785 25.3445 223.592 23.9148 224.664 22.6695C225.736 21.4243 227.085 20.4327 228.734 19.6948C230.372 18.9569 232.286 18.5879 234.453 18.5879C236.125 18.5879 237.612 18.8877 238.927 19.4872C240.23 20.0868 241.36 20.8939 242.305 21.9201C243.251 22.9463 244 24.1223 244.554 25.4483C245.13 26.7512 245.476 28.1463 245.637 29.5876ZM239.065 29.1149C239.008 28.4577 238.835 27.8004 238.546 27.1548C238.258 26.5091 237.889 25.9441 237.44 25.4483C236.978 24.964 236.436 24.5605 235.814 24.2376C235.18 23.9263 234.488 23.7649 233.738 23.7649C232.977 23.7649 232.251 23.9263 231.536 24.2607C230.833 24.5951 230.21 25.0447 229.691 25.6097C229.172 26.1747 228.757 26.8319 228.435 27.5698C228.123 28.3078 227.962 29.1033 227.962 29.9566L239.065 29.1149Z" fill="#1E2E5C"/>
<path d="M263.648 28.5036L263.832 28.5959C263.89 28.5959 263.924 28.5152 263.924 28.3537C263.924 27.9732 263.89 27.4774 263.809 26.8433C263.728 26.2091 263.521 25.5865 263.175 24.9754C262.829 24.3643 262.299 23.8339 261.595 23.3958C260.892 22.9577 259.9 22.7386 258.644 22.7386C258.079 22.7386 257.306 22.8308 256.349 23.0268C255.392 23.2113 254.297 23.6264 253.063 24.2606C252.879 24.3528 252.683 24.3989 252.498 24.3989C252.152 24.3989 251.887 24.2606 251.691 23.9954C251.506 23.7302 251.506 23.4188 251.691 23.0729C252.475 21.6547 253.674 20.4787 255.288 19.5563C256.891 18.6223 258.724 18.1611 260.777 18.1611C262.322 18.1611 263.694 18.4263 264.893 18.9682C266.092 19.5102 267.095 20.225 267.914 21.1474C268.732 22.0583 269.355 23.1537 269.782 24.4104C270.208 25.6672 270.416 27.0162 270.416 28.4344L270.37 43.8502C270.37 44.1038 270.243 44.2307 269.989 44.2307C269.459 44.2307 268.905 44.2191 268.34 44.1846C267.775 44.15 267.257 44.0693 266.784 43.9194C266.311 43.781 265.919 43.5504 265.631 43.2391C265.331 42.9278 265.181 42.4781 265.181 41.9131C265.181 41.7286 265.135 41.6249 265.043 41.6249C264.985 41.6249 264.916 41.671 264.858 41.7632C264.224 42.5473 263.302 43.193 262.091 43.6772C260.88 44.1615 259.578 44.4152 258.194 44.4152C256.937 44.4152 255.761 44.1846 254.7 43.7349C253.628 43.2737 252.694 42.6511 251.91 41.8439C251.126 41.0368 250.515 40.0914 250.088 39.0075C249.662 37.9237 249.454 36.7476 249.454 35.4793C249.454 33.9689 249.696 32.6775 250.192 31.6283C250.676 30.5675 251.334 29.7143 252.152 29.0455C252.971 28.3883 253.916 27.9041 254.989 27.6043C256.061 27.3045 257.168 27.1546 258.298 27.1546C258.863 27.1546 259.658 27.2238 260.684 27.3621C261.676 27.489 262.679 27.8695 263.648 28.5036ZM255.807 35.2603C255.807 36.3671 256.13 37.278 256.776 38.0044C257.421 38.7308 258.378 39.0883 259.635 39.0883C260.073 39.0883 260.546 39.0306 261.053 38.9268C261.561 38.8115 262.022 38.6386 262.449 38.3849C262.875 38.1313 263.233 37.7969 263.509 37.3933C263.798 36.9898 263.936 36.4824 263.936 35.8829V33.5653C262.702 32.2048 261.272 31.536 259.635 31.536C259.162 31.536 258.701 31.5937 258.24 31.7205C257.779 31.8473 257.375 32.0549 257.006 32.3316C256.649 32.6199 256.349 32.9888 256.13 33.4616C255.911 33.9343 255.807 34.5339 255.807 35.2603Z" fill="#1E2E5C"/>
<path d="M282.095 11.1055C282.349 11.1055 282.476 11.2323 282.476 11.486V35.1688C282.476 35.8606 282.533 36.5524 282.66 37.2442C282.787 37.936 283.017 38.5932 283.34 39.2043C283.675 39.8154 284.136 40.3804 284.735 40.8877C285.335 41.395 286.096 41.7986 287.007 42.1214C287.261 42.2137 287.422 42.3751 287.503 42.5942C287.583 42.8132 287.606 43.0438 287.572 43.2744C287.537 43.5166 287.434 43.7241 287.261 43.9086C287.088 44.0931 286.857 44.1968 286.58 44.1968C284.943 44.1968 283.479 44.0239 282.187 43.678C280.896 43.3321 279.801 42.8017 278.901 42.0753C278.002 41.3489 277.31 40.415 276.826 39.285C276.342 38.1551 276.088 36.783 276.088 35.1688V15.6368C276.088 14.5645 276.307 13.7343 276.745 13.1348C277.183 12.5352 277.725 12.0855 278.348 11.7857C278.982 11.486 279.628 11.3015 280.308 11.2208C281 11.1401 281.588 11.1055 282.095 11.1055Z" fill="#1E2E5C"/>
<path d="M289.372 24.1108C289.118 24.1108 288.991 23.984 288.991 23.7303C288.991 22.4044 289.222 21.309 289.671 20.4212C290.133 19.5449 290.767 19.0953 291.585 19.0953H293.05V18.1959C293.05 17.1582 293.257 16.305 293.684 15.6478C294.111 14.9905 294.629 14.4602 295.241 14.0912C295.852 13.7107 296.509 13.457 297.201 13.3072C297.892 13.1688 298.504 13.0996 299.045 13.0996C299.299 13.0996 299.426 13.2264 299.426 13.4801L299.472 19.1068H306.494C306.748 19.1068 306.874 19.2336 306.874 19.4873C306.874 19.9946 306.828 20.525 306.736 21.0669C306.644 21.6203 306.482 22.1161 306.263 22.5543C306.044 22.9924 305.733 23.3614 305.341 23.6612C304.949 23.961 304.465 24.1108 303.9 24.1108H299.507V36.1252C299.507 36.5633 299.541 37.013 299.599 37.4512C299.657 37.8893 299.795 38.2813 300.002 38.6042C300.21 38.9386 300.487 39.2037 300.856 39.4113C301.225 39.6188 301.697 39.7226 302.297 39.7226C302.77 39.7226 303.242 39.6649 303.715 39.5612C304.188 39.4459 304.638 39.3075 305.064 39.1346C305.491 38.9616 305.871 38.7887 306.229 38.6157C306.575 38.4428 306.863 38.2929 307.082 38.166C307.336 38.0046 307.555 37.9354 307.739 37.9354C308.085 37.9354 308.281 38.143 308.327 38.5465C308.373 38.9616 308.143 39.4228 307.635 39.9647C307.347 40.253 306.978 40.6219 306.505 41.0947C306.033 41.5674 305.468 42.0401 304.799 42.5129C304.142 42.9856 303.392 43.3892 302.574 43.7235C301.755 44.0579 300.856 44.2193 299.876 44.2193C298.803 44.2193 297.846 44.0002 297.016 43.5621C296.174 43.124 295.471 42.5359 294.883 41.8095C294.295 41.0831 293.857 40.2299 293.557 39.2383C293.257 38.2467 293.107 37.209 293.107 36.1367V24.1224H289.372V24.1108Z" fill="#1E2E5C"/>
<path d="M312.12 15.6937C312.12 14.6905 312.339 13.8834 312.754 13.2839C313.169 12.6843 313.7 12.2231 314.311 11.9118C314.922 11.6005 315.567 11.3814 316.248 11.2776C316.928 11.1623 317.528 11.1162 318.069 11.1162C318.323 11.1162 318.45 11.243 318.45 11.4967V20.617C318.45 20.8015 318.496 20.9053 318.588 20.9053C318.646 20.9053 318.715 20.8707 318.773 20.813C319.246 20.2826 319.903 19.7868 320.733 19.3487C321.575 18.9106 322.589 18.6915 323.788 18.6915C324.988 18.6915 326.141 18.9336 327.236 19.4179C328.343 19.9021 329.311 20.6055 330.165 21.4933C331.018 22.3926 331.698 23.4534 332.217 24.6871C332.736 25.9208 333.001 27.2929 333.001 28.8034V43.8386C333.001 44.0923 332.874 44.2191 332.62 44.2191C331.894 44.2191 331.179 44.1845 330.464 44.1269C329.749 44.0692 329.115 43.8963 328.55 43.608C327.985 43.3198 327.524 42.9047 327.155 42.3282C326.786 41.7632 326.613 40.9676 326.613 39.9645V29.23C326.613 28.5958 326.556 27.9732 326.429 27.3391C326.302 26.7049 326.094 26.1284 325.818 25.6095C325.529 25.0907 325.149 24.6756 324.665 24.3528C324.169 24.0414 323.569 23.88 322.843 23.88C322.278 23.88 321.725 23.9953 321.194 24.2144C320.652 24.4335 320.179 24.7217 319.776 25.0907C319.361 25.4481 319.038 25.8863 318.807 26.3936C318.565 26.9009 318.45 27.4313 318.45 27.9963V39.953C318.45 40.9907 318.289 41.7978 317.977 42.3628C317.666 42.9277 317.239 43.3428 316.697 43.6195C316.155 43.8847 315.533 44.0577 314.806 44.1153C314.08 44.1845 313.308 44.2076 312.489 44.2076C312.235 44.2076 312.108 44.0807 312.108 43.8271V15.6937H312.12Z" fill="#1E2E5C"/>
<path d="M30.0621 26.1529C28.8565 24.6862 27.7565 23.1387 26.7683 21.5167L26.6627 21.3427C26.5508 21.0879 26.4327 20.8331 26.3146 20.5845C24.0525 15.9483 24.357 11.4177 26.9113 6.9928C28.2723 4.6312 30.0497 2.61762 32.1689 0.902344C32.2062 0.902344 32.2249 0.902344 32.2622 0.908559C33.2006 1.82834 34.1887 2.69841 35.065 3.66791C36.6684 5.43911 37.8927 7.45269 38.7379 9.69C38.7752 9.78323 38.8125 9.87023 38.8622 10.0007C42.4979 8.33519 46.3013 7.68885 50.3222 8.01824C50.6454 12.0081 50.0115 15.7991 48.3459 19.4596C52.081 20.8455 55.2194 23.0952 57.8359 26.1591C55.2381 29.1981 52.1183 31.4603 48.3397 32.8462C50.0053 36.488 50.6454 40.2914 50.3222 44.3C46.3261 44.5921 42.5289 44.0079 38.8747 42.305C37.495 45.9531 35.2577 48.9797 32.1689 51.4842C31.5599 50.9249 30.9136 50.3966 30.3356 49.8C28.2101 47.6249 26.5073 45.1762 25.5192 42.2677C24.357 38.831 24.6242 35.4812 26.0909 32.1936C26.2649 31.8021 26.4576 31.423 26.6378 31.0377L26.7745 30.8139C27.7627 29.1857 28.8627 27.6258 30.0621 26.1529ZM53.7217 26.1653C51.677 24.3506 49.4832 22.9336 46.9228 22.163C45.3753 21.6969 43.803 21.5975 42.1995 21.9082C40.2481 22.2873 38.4831 23.1014 36.8486 24.2015C35.9724 24.7919 35.152 25.4568 34.2695 26.1218C36.0407 27.6879 37.8803 28.9247 39.9809 29.7637C41.6651 30.4348 43.399 30.7518 45.1888 30.5094C48.5137 30.0557 51.2047 28.3467 53.7217 26.1653ZM32.1876 28.2783C30.5904 30.1117 29.2915 32.0383 28.4649 34.2756C27.7503 36.2084 27.5638 38.1722 28.0175 40.1734C28.4214 41.957 29.2107 43.5728 30.2672 45.0582C30.8514 45.8847 31.504 46.6554 32.1503 47.4819C33.6605 45.8661 34.8537 44.1695 35.6803 42.2304C36.4882 40.3536 36.8424 38.3959 36.4758 36.3637C35.904 33.2563 34.2944 30.6772 32.1876 28.2783ZM32.1814 4.91086C31.1 6.02951 30.1864 7.22896 29.4469 8.5527C28.5706 10.1126 27.9305 11.7533 27.7938 13.5618C27.6073 16.0166 28.3469 18.2291 29.5152 20.3359C30.2486 21.6596 31.1373 22.8839 32.1814 24.0088C33.2752 22.8156 34.1949 21.5415 34.9469 20.1494C35.8605 18.459 36.513 16.6816 36.6001 14.7302C36.6995 12.4556 35.9848 10.3923 34.8724 8.45327C34.1328 7.17303 33.2441 5.99844 32.1814 4.91086ZM38.3464 32.349C39.2848 34.5366 39.6826 36.7118 39.5583 38.9801C39.5521 39.1169 39.6701 39.3219 39.7944 39.3903C42.1436 40.6705 44.6792 41.2174 47.3454 41.3666C47.3578 41.2796 47.3764 41.2174 47.3702 41.1615C47.2273 38.5575 46.6742 36.0654 45.4064 33.766C45.3318 33.6292 45.077 33.5049 44.9154 33.5174C43.2561 33.6417 41.6402 33.4241 40.0617 32.9332C39.521 32.7592 38.9865 32.5665 38.3464 32.349ZM47.3827 10.9454C44.6606 11.1008 42.1188 11.6352 39.7758 12.9341C39.6453 13.0087 39.5521 13.2821 39.5583 13.4561C39.6204 14.9974 39.4837 16.5076 39.0425 17.9867C38.8498 18.633 38.6198 19.2732 38.3775 19.9816C40.5464 19.0556 42.734 18.6517 45.021 18.776C45.1578 18.7822 45.3815 18.6144 45.4436 18.4777C45.8538 17.5517 46.2826 16.6257 46.5996 15.6624C47.0968 14.1646 47.3267 12.6047 47.3827 10.9454Z" fill="#2E8544"/>
<path d="M56.7988 17.2416C57.4389 16.6015 58.1101 15.9303 58.744 15.2964C59.409 15.9676 60.0989 16.6636 60.7576 17.3286C60.1486 17.9377 59.4712 18.6151 58.8124 19.2676C58.1661 18.6213 57.4887 17.9377 56.7988 17.2416Z" fill="#2E8544"/>
<path d="M62.707 26.1032C63.3596 25.4444 64.0184 24.7857 64.6274 24.1704C65.3172 24.854 66.0009 25.5377 66.6658 26.1964C66.063 26.7993 65.3794 27.4829 64.733 28.1292C64.0805 27.4767 63.3907 26.793 62.707 26.1032Z" fill="#2E8544"/>
<path d="M56.7988 35.0081C57.4389 34.3617 58.1164 33.6905 58.744 33.0566C59.3966 33.7154 60.074 34.399 60.7203 35.0454C60.1237 35.642 59.4339 36.3256 58.7751 36.9781C58.1474 36.3505 57.4638 35.6731 56.7988 35.0081Z" fill="#2E8544"/>
<path d="M14.4151 17.0046C14.4772 14.1582 12.184 10.4853 7.70316 10.361C6.95739 8.29151 8.57322 5.31464 10.9845 4.31407C13.545 3.25756 17.2117 4.18977 18.492 7.9932C18.8276 7.90619 19.1632 7.81919 19.5361 7.72597C18.9829 5.76832 17.7959 4.40108 16.0371 3.444C16.9259 2.07676 18.1377 1.19426 19.7163 0.945673C20.462 0.827593 21.2451 0.964317 22.0095 0.995391C22.3513 1.00782 22.4383 1.19426 22.4383 1.52986C22.4197 3.16434 22.4321 4.80503 22.4321 6.43951C22.4321 9.91356 22.4321 13.3814 22.4321 16.8554C22.4321 17.0481 22.4321 17.2408 22.4321 17.4893C21.0338 16.8989 19.6603 16.6814 18.1999 17.16C18.2931 17.4956 18.3863 17.8187 18.4858 18.173C18.8524 18.1357 19.2005 18.086 19.5547 18.0611C20.4558 17.999 21.3135 18.173 22.0841 18.6391C22.2457 18.7385 22.4135 18.9871 22.4197 19.1673C22.4383 22.8527 22.4321 26.5442 22.4321 30.2296C22.4321 30.2793 22.4135 30.329 22.3886 30.4409C20.17 29.2166 17.8456 28.9618 15.3535 29.6019C15.4592 29.9872 15.5524 30.3228 15.6518 30.6895C17.2863 30.2544 18.8711 30.2669 20.4434 30.8138C20.462 30.82 20.4807 30.82 20.4931 30.8262C22.314 31.4415 22.4321 31.603 22.4321 33.4923C22.4321 37.4511 22.4321 41.4037 22.4321 45.3625C22.4321 48.7868 20.1264 51.3038 16.7083 51.484C14.0111 51.6208 11.8298 50.2411 10.9038 47.3077C10.6552 46.5309 10.2699 46.158 9.45572 45.9715C6.2862 45.2631 4.49013 41.9692 5.49692 38.8743C5.71444 38.1969 5.51557 37.7619 4.85059 37.4884C2.06016 36.32 0.655631 32.9889 1.87372 30.3228C3.17261 31.4539 4.65793 32.1127 6.42292 32.1251C6.42292 31.7522 6.42292 31.4228 6.42292 31.0624C5.98789 30.9816 5.54043 30.9381 5.11782 30.82C2.99238 30.2482 1.60649 28.8872 1.08445 26.7555C0.562409 24.6239 1.17145 22.7781 2.79972 21.2928C3.22854 20.9012 3.30933 20.4289 3.01724 19.9317C1.86751 17.9927 1.96073 15.5814 3.32798 13.7978C4.74494 11.9458 6.65286 11.2062 8.93989 11.6723C11.171 12.126 12.8428 13.9283 13.2343 16.1407C13.2405 16.1594 13.2405 16.178 13.2405 16.1967C13.3834 17.16 13.3834 17.16 14.4151 17.0046ZM8.55458 18.7447C8.24384 20.0436 8.47379 21.2368 9.13256 22.3368C10.2823 24.251 12.0597 25.0838 14.2535 25.1459C13.3213 27.1222 11.0529 27.8493 8.6043 26.9668C8.43029 27.2651 8.25627 27.5635 8.0574 27.9115C8.31221 28.0296 8.51729 28.1352 8.72859 28.2222C11.2331 29.2041 14.21 27.955 15.4592 25.3821C15.6208 25.0527 15.8134 24.8663 16.1614 24.7295C17.7773 24.0956 18.84 22.9521 19.2999 21.2182C18.9084 21.1312 18.5666 21.0566 18.2372 20.982C17.305 23.1572 15.6332 24.2323 13.6196 23.9775C12.5196 23.8346 11.5439 23.4182 10.7546 22.6289C9.74782 21.6222 9.39979 20.3792 9.60487 18.9809C9.22577 18.8939 8.89639 18.8193 8.55458 18.7447ZM18.349 44.9461C17.566 42.137 15.8072 40.3099 13.2032 39.2969C13.3213 37.65 13.8123 36.7551 15.5337 35.0398C15.4405 34.8969 15.3473 34.7477 15.2417 34.5986C15.1422 34.4556 15.0304 34.3127 14.9123 34.1573C13.2219 35.3568 12.3394 37.0161 12.0348 38.9924C10.8789 38.8494 9.80375 38.7935 8.70374 39.1167C8.80317 39.502 8.89018 39.8376 8.97719 40.1794C10.854 39.7568 12.5693 40.0489 14.1541 41.0122C15.7451 41.9755 16.7394 43.4049 17.2552 45.2071C17.6406 45.1201 17.9637 45.0393 18.349 44.9461Z" fill="#1E2E5C"/>
</svg>
