<svg width="165" height="26" viewBox="0 0 165 26" fill="none" xmlns="http://www.w3.org/2000/svg">
<g id="Group 5">
<g id="Group 4">
<g id="Group">
<path id="Vector" d="M38.9766 7.32686C38.9766 7.04616 39.0396 6.76546 39.1656 6.49048C39.2916 6.21551 39.4692 5.97491 39.7041 5.76295C39.939 5.55099 40.2197 5.37913 40.5405 5.24737C40.8613 5.11562 41.2107 5.04688 41.5831 5.04688H44.3786C46.0227 5.04688 47.2945 5.41924 48.1939 6.16395C49.0933 6.90867 49.5458 7.86534 49.5458 9.0397C49.5458 10.4489 48.887 11.5832 47.5752 12.4482C47.4663 12.5112 47.4663 12.5742 47.5752 12.6373C48.4517 13.0898 49.1276 13.697 49.5974 14.459C50.0671 15.2209 50.302 15.9999 50.302 16.7962C50.302 17.6269 50.1187 18.3372 49.7635 18.933C49.4026 19.5288 48.9271 20.0157 48.3428 20.3995C47.7528 20.7833 47.0883 21.064 46.3435 21.2473C45.5988 21.4307 44.8369 21.5166 44.0521 21.5166H39.1656C39.0396 21.5166 38.9766 21.4536 38.9766 21.3275V7.32686ZM43.6511 11.715C44.5448 11.715 45.2436 11.5316 45.7535 11.165C46.2633 10.7984 46.5154 10.3229 46.5154 9.74432C46.5154 9.08554 46.3435 8.61006 45.9998 8.31218C45.6561 8.01429 45.1692 7.86534 44.5448 7.86534H42.1216V11.7207H43.6511V11.715ZM42.1216 18.6924H43.7886C44.8083 18.6924 45.6217 18.532 46.2347 18.2112C46.8476 17.8904 47.1513 17.3175 47.1513 16.4869C47.1513 16.0515 47.0482 15.7021 46.8476 15.4443C46.6414 15.1865 46.3722 14.9917 46.0342 14.8542C45.6962 14.7225 45.3067 14.6365 44.8598 14.5964C44.413 14.5563 43.949 14.5392 43.4621 14.5392H42.1216V18.6924Z" fill="white"/>
<path id="Vector_2" d="M54.5757 7.29798C54.1346 7.29798 53.745 7.1433 53.4013 6.83969C53.0576 6.53607 52.8857 6.12935 52.8857 5.63096C52.8857 5.16121 53.0576 4.77167 53.4013 4.46805C53.745 4.16444 54.1403 4.00977 54.5757 4.00977C54.9996 4.00977 55.372 4.16444 55.6928 4.46805C56.0136 4.77167 56.174 5.16121 56.174 5.63096C56.174 6.12935 56.0136 6.53607 55.6928 6.83969C55.372 7.14903 54.9996 7.29798 54.5757 7.29798ZM53.1894 21.5106C53.0633 21.5106 53.0003 21.4476 53.0003 21.3216V10.8268C53.0003 10.3284 53.1034 9.93313 53.3039 9.64097C53.5102 9.34881 53.7565 9.13685 54.0544 8.99364C54.3523 8.85042 54.6731 8.7645 55.0168 8.73585C55.3605 8.70721 55.6756 8.69002 55.9563 8.69002C56.0823 8.69002 56.1453 8.75304 56.1453 8.87907V19.4483C56.1453 19.9639 56.0651 20.3649 55.899 20.6456C55.7329 20.9263 55.5209 21.1325 55.2517 21.2586C54.9824 21.3846 54.6731 21.4591 54.3122 21.482C53.957 21.4992 53.5789 21.5106 53.1894 21.5106Z" fill="white"/>
<path id="Vector_3" d="M59.2275 11.5315C59.2275 10.9816 59.3364 10.5462 59.5541 10.2139C59.7718 9.88741 60.041 9.63535 60.3503 9.46349C60.6654 9.29163 60.9862 9.17706 61.3242 9.12551C61.6622 9.06822 61.9486 9.04531 62.1835 9.04531C62.3095 9.04531 62.3725 9.10832 62.3725 9.23435V10.4545C62.3725 10.5347 62.3897 10.5748 62.4184 10.5748C62.447 10.5748 62.4757 10.5519 62.4871 10.5061C62.7506 10.0822 63.1001 9.72128 63.5297 9.42339C63.9594 9.12551 64.4864 8.97656 65.1165 8.97656C65.7295 8.97656 66.268 9.11405 66.7377 9.38902C67.2075 9.66399 67.6371 10.0249 68.0324 10.4832C68.0782 10.529 68.1183 10.5519 68.1527 10.5519C68.2157 10.5519 68.2558 10.529 68.273 10.4832C68.5079 10.2025 68.7599 9.96188 69.0349 9.76711C69.3099 9.57233 69.5963 9.41193 69.8942 9.29736C70.1921 9.18279 70.4957 9.09686 70.7993 9.05103C71.1029 9.0052 71.3893 8.98229 71.6586 8.98229C72.3288 8.98229 72.9418 9.11405 73.4917 9.37184C74.0417 9.62962 74.5114 9.97907 74.901 10.4144C75.2905 10.8498 75.5941 11.3597 75.8061 11.9268C76.018 12.4996 76.1212 13.1069 76.1212 13.7485V21.3389C76.1212 21.4649 76.0581 21.5279 75.9321 21.5279C75.5426 21.5279 75.1645 21.4935 74.8036 21.4248C74.4427 21.3561 74.1276 21.2357 73.8526 21.0696C73.5777 20.9035 73.36 20.6858 73.1938 20.4108C73.0277 20.1359 72.9475 19.8036 72.9475 19.4141V14.012C72.9475 13.6969 72.9189 13.3933 72.8673 13.0954C72.81 12.7975 72.7241 12.534 72.5981 12.3106C72.472 12.0815 72.2945 11.8981 72.071 11.7607C71.8419 11.6174 71.5669 11.5487 71.2347 11.5487C70.9196 11.5487 70.6446 11.606 70.3983 11.7148C70.1577 11.8237 69.9457 11.9669 69.7739 12.1502C69.602 12.3278 69.4703 12.5283 69.3843 12.7517C69.2984 12.9694 69.2526 13.1985 69.2526 13.4334V21.3503C69.2526 21.4763 69.1896 21.5394 69.0635 21.5394C68.7656 21.5394 68.4391 21.5107 68.0897 21.4592C67.7402 21.4019 67.4137 21.3045 67.1273 21.1556C66.8351 21.0066 66.5945 20.7946 66.3997 20.5082C66.205 20.2275 66.1076 19.8666 66.1076 19.4255V14.0235C66.1076 13.7256 66.0789 13.4334 66.0274 13.1412C65.9701 12.8491 65.8842 12.5913 65.7581 12.3564C65.6321 12.1216 65.4545 11.9325 65.2311 11.7836C65.002 11.6346 64.7098 11.5602 64.3489 11.5602C63.7703 11.5602 63.3006 11.7435 62.9397 12.1101C62.5788 12.4767 62.4012 12.9178 62.4012 13.4391V19.5C62.4012 19.9869 62.2923 20.365 62.0861 20.64C61.8741 20.9149 61.6106 21.1154 61.3013 21.2529C60.9862 21.3847 60.6654 21.4706 60.3274 21.4993C59.9894 21.5336 59.6916 21.5451 59.4223 21.5451C59.2963 21.5451 59.2333 21.4821 59.2333 21.356V11.5315H59.2275Z" fill="white"/>
<path id="Vector_4" d="M84.9711 8.9707C85.8647 8.9707 86.6896 9.13111 87.4515 9.45191C88.2134 9.77271 88.8665 10.2081 89.4222 10.758C89.9778 11.308 90.4189 11.9553 90.7397 12.7057C91.0605 13.4562 91.2209 14.2697 91.2209 15.1519C91.2209 16.0341 91.0663 16.859 90.7512 17.6438C90.4361 18.4286 90.0008 19.1103 89.4336 19.7004C88.8722 20.2904 88.2077 20.7544 87.4515 21.0981C86.6896 21.4418 85.8647 21.6137 84.9711 21.6137C84.0774 21.6137 83.2525 21.4418 82.4906 21.0981C81.7287 20.7544 81.0699 20.2904 80.5085 19.7004C79.9471 19.1103 79.5002 18.4286 79.1794 17.6438C78.8586 16.859 78.6982 16.0283 78.6982 15.1519C78.6982 14.2754 78.8586 13.4619 79.1794 12.7057C79.5002 11.9553 79.9413 11.3022 80.5085 10.758C81.0699 10.2081 81.7344 9.77844 82.4906 9.45191C83.2525 9.13111 84.0774 8.9707 84.9711 8.9707ZM84.9711 19.0244C85.458 19.0244 85.8934 18.9041 86.2772 18.6578C86.661 18.4172 86.9818 18.1078 87.2396 17.7297C87.4974 17.3516 87.6979 16.9335 87.8411 16.4752C87.9843 16.0111 88.053 15.57 88.053 15.1461C88.053 14.7222 87.9843 14.2983 87.8411 13.8629C87.6979 13.4333 87.4974 13.0437 87.2281 12.7C86.9589 12.3563 86.6381 12.0756 86.2657 11.8636C85.8876 11.6517 85.458 11.5486 84.9711 11.5486C84.4841 11.5486 84.0488 11.6517 83.6649 11.8636C83.2811 12.0756 82.9603 12.3506 82.7025 12.7C82.4447 13.0437 82.2442 13.4333 82.101 13.8629C81.9578 14.2926 81.8891 14.7222 81.8891 15.1461C81.8891 15.5815 81.9578 16.0283 82.101 16.4866C82.2442 16.9392 82.439 17.3574 82.7025 17.7297C82.9603 18.1078 83.2811 18.4172 83.6649 18.6578C84.0488 18.9041 84.4841 19.0244 84.9711 19.0244Z" fill="white"/>
<path id="Vector_5" d="M93.8046 7.3264C93.8046 6.765 93.9019 6.32963 94.0967 6.02028C94.2915 5.71094 94.5378 5.49325 94.8357 5.35004C95.1336 5.20682 95.4601 5.12662 95.8096 5.10371C96.159 5.08079 96.4855 5.06934 96.7834 5.06934C96.9095 5.06934 96.9725 5.13235 96.9725 5.25838V11.6973H103.595V7.3264C103.595 6.765 103.692 6.32963 103.887 6.03174C104.082 5.73385 104.328 5.51617 104.626 5.37295C104.924 5.22974 105.25 5.14954 105.6 5.12662C105.949 5.10371 106.276 5.09225 106.574 5.09225C106.7 5.09225 106.763 5.15527 106.763 5.2813V19.471C106.763 19.9579 106.682 20.336 106.516 20.611C106.35 20.886 106.132 21.0865 105.858 21.224C105.583 21.3557 105.267 21.4417 104.918 21.4703C104.569 21.5047 104.202 21.5161 103.824 21.5161C103.669 21.5161 103.589 21.4531 103.589 21.3271V14.5158H96.9667V19.471C96.9667 19.9579 96.8579 20.3418 96.6517 20.6225C96.4397 20.9032 96.1819 21.1094 95.8783 21.2354C95.5747 21.3615 95.2539 21.4417 94.9159 21.4703C94.5779 21.5047 94.2858 21.5161 94.0337 21.5161C93.879 21.5161 93.7988 21.4531 93.7988 21.3271V7.3264H93.8046Z" fill="#1E2E5C"/>
<path id="Vector_6" d="M121.595 14.2527C121.623 14.5162 121.578 14.7682 121.452 15.0031C121.326 15.238 121.159 15.4499 120.947 15.639C120.735 15.828 120.489 15.9884 120.208 16.1202C119.928 16.252 119.647 16.3493 119.361 16.4124L113.185 17.0253C113.328 17.7471 113.655 18.2741 114.171 18.6121C114.686 18.9501 115.345 19.1163 116.141 19.1163C116.766 19.1163 117.361 19.0418 117.928 18.8928C118.49 18.7439 119.068 18.5377 119.664 18.2684C119.819 18.2054 119.939 18.1768 120.014 18.1768C120.157 18.1768 120.277 18.2226 120.38 18.3085C120.483 18.3944 120.546 18.509 120.581 18.6465C120.609 18.7897 120.604 18.9387 120.558 19.0933C120.512 19.248 120.415 19.3969 120.277 19.5402C120.025 19.775 119.744 20.0214 119.429 20.2792C119.114 20.5369 118.753 20.7718 118.347 20.9838C117.94 21.1957 117.482 21.3676 116.972 21.4993C116.462 21.6311 115.901 21.6998 115.293 21.6998C114.337 21.6998 113.506 21.528 112.79 21.1843C112.08 20.8406 111.484 20.3765 111.003 19.798C110.527 19.2194 110.166 18.5548 109.931 17.8159C109.696 17.0711 109.576 16.2921 109.576 15.4786C109.576 14.6021 109.708 13.76 109.977 12.9523C110.241 12.1446 110.642 11.4342 111.174 10.8155C111.707 10.1968 112.377 9.70417 113.197 9.33754C114.01 8.97091 114.961 8.7876 116.038 8.7876C116.869 8.7876 117.608 8.93654 118.261 9.23443C118.908 9.53231 119.469 9.93332 119.939 10.4432C120.409 10.953 120.781 11.5373 121.056 12.1961C121.343 12.8434 121.515 13.5366 121.595 14.2527ZM118.329 14.0178C118.301 13.6913 118.215 13.3647 118.072 13.0439C117.928 12.7231 117.745 12.4424 117.522 12.1961C117.293 11.9555 117.023 11.755 116.714 11.5946C116.399 11.4399 116.055 11.3597 115.683 11.3597C115.305 11.3597 114.944 11.4399 114.589 11.6061C114.239 11.7722 113.93 11.9956 113.672 12.2763C113.414 12.557 113.208 12.8835 113.048 13.2502C112.893 13.6168 112.813 14.0121 112.813 14.436L118.329 14.0178Z" fill="#1E2E5C"/>
<path id="Vector_7" d="M130.542 13.7142L130.634 13.7601C130.662 13.7601 130.68 13.72 130.68 13.6398C130.68 13.4507 130.662 13.2044 130.622 12.8893C130.582 12.5742 130.479 12.2649 130.307 11.9613C130.135 11.6577 129.872 11.3942 129.522 11.1765C129.173 10.9588 128.68 10.8499 128.056 10.8499C127.775 10.8499 127.391 10.8958 126.916 10.9931C126.44 11.0848 125.896 11.291 125.283 11.6061C125.192 11.6519 125.094 11.6748 125.003 11.6748C124.831 11.6748 124.699 11.6061 124.602 11.4744C124.51 11.3426 124.51 11.1879 124.602 11.0161C124.991 10.3114 125.587 9.72713 126.389 9.26884C127.185 8.80483 128.096 8.57568 129.116 8.57568C129.883 8.57568 130.565 8.70744 131.161 8.97668C131.757 9.24593 132.255 9.6011 132.662 10.0594C133.068 10.5119 133.378 11.0562 133.59 11.6806C133.802 12.305 133.905 12.9752 133.905 13.6799L133.882 21.339C133.882 21.465 133.819 21.528 133.693 21.528C133.429 21.528 133.154 21.5223 132.874 21.5051C132.593 21.4879 132.335 21.4478 132.1 21.3734C131.865 21.3046 131.671 21.19 131.527 21.0354C131.379 20.8807 131.304 20.6573 131.304 20.3766C131.304 20.2849 131.281 20.2334 131.235 20.2334C131.207 20.2334 131.172 20.2563 131.144 20.3021C130.829 20.6917 130.37 21.0125 129.769 21.2531C129.167 21.4937 128.52 21.6197 127.833 21.6197C127.208 21.6197 126.624 21.5051 126.097 21.2817C125.564 21.0526 125.1 20.7432 124.71 20.3422C124.321 19.9412 124.017 19.4715 123.805 18.933C123.593 18.3945 123.49 17.8102 123.49 17.18C123.49 16.4296 123.611 15.788 123.857 15.2667C124.097 14.7396 124.424 14.3157 124.831 13.9835C125.237 13.6569 125.707 13.4163 126.24 13.2674C126.773 13.1185 127.323 13.044 127.884 13.044C128.165 13.044 128.56 13.0784 129.07 13.1471C129.563 13.2101 130.061 13.3992 130.542 13.7142ZM126.647 17.0712C126.647 17.6211 126.807 18.0737 127.128 18.4346C127.449 18.7955 127.924 18.9731 128.549 18.9731C128.766 18.9731 129.001 18.9444 129.253 18.8929C129.505 18.8356 129.734 18.7497 129.946 18.6236C130.158 18.4976 130.336 18.3315 130.473 18.131C130.617 17.9305 130.685 17.6784 130.685 17.3805V16.2291C130.072 15.5531 129.362 15.2209 128.549 15.2209C128.314 15.2209 128.085 15.2495 127.855 15.3125C127.626 15.3755 127.426 15.4786 127.242 15.6161C127.065 15.7593 126.916 15.9427 126.807 16.1775C126.698 16.4124 126.647 16.7103 126.647 17.0712Z" fill="#1E2E5C"/>
<path id="Vector_8" d="M139.708 5.06934C139.834 5.06934 139.897 5.13235 139.897 5.25838V17.0249C139.897 17.3686 139.926 17.7123 139.989 18.0561C140.052 18.3998 140.167 18.7263 140.327 19.0299C140.493 19.3335 140.722 19.6142 141.02 19.8663C141.318 20.1183 141.696 20.3188 142.149 20.4792C142.275 20.5251 142.355 20.6053 142.395 20.7141C142.435 20.823 142.446 20.9375 142.429 21.0521C142.412 21.1724 142.361 21.2755 142.275 21.3672C142.189 21.4588 142.074 21.5104 141.937 21.5104C141.123 21.5104 140.396 21.4245 139.754 21.2526C139.112 21.0807 138.568 20.8172 138.121 20.4563C137.675 20.0954 137.331 19.6314 137.09 19.07C136.85 18.5086 136.724 17.8269 136.724 17.0249V7.32067C136.724 6.78791 136.832 6.37546 137.05 6.07757C137.268 5.77968 137.537 5.55626 137.846 5.40732C138.162 5.25838 138.482 5.16672 138.82 5.12662C139.164 5.08652 139.456 5.06934 139.708 5.06934Z" fill="#1E2E5C"/>
<path id="Vector_9" d="M143.323 11.5313C143.197 11.5313 143.134 11.4683 143.134 11.3423C143.134 10.6835 143.248 10.1393 143.472 9.6982C143.701 9.26283 144.016 9.03941 144.423 9.03941H145.15V8.59258C145.15 8.07701 145.253 7.6531 145.465 7.32657C145.677 7.00004 145.935 6.73652 146.239 6.5532C146.542 6.36416 146.869 6.23813 147.213 6.16366C147.556 6.09492 147.86 6.06055 148.129 6.06055C148.255 6.06055 148.318 6.12356 148.318 6.24959L148.341 9.04514H151.83C151.956 9.04514 152.019 9.10815 152.019 9.23418C152.019 9.48624 151.996 9.74976 151.95 10.019C151.904 10.294 151.824 10.5403 151.715 10.758C151.606 10.9757 151.452 11.159 151.257 11.3079C151.062 11.4569 150.822 11.5313 150.541 11.5313H148.358V17.5005C148.358 17.7182 148.375 17.9416 148.404 18.1593C148.433 18.377 148.501 18.5718 148.605 18.7322C148.708 18.8983 148.845 19.0301 149.029 19.1332C149.212 19.2363 149.447 19.2879 149.745 19.2879C149.979 19.2879 150.214 19.2592 150.449 19.2077C150.684 19.1504 150.907 19.0816 151.119 18.9957C151.331 18.9098 151.52 18.8238 151.698 18.7379C151.87 18.652 152.013 18.5775 152.122 18.5145C152.248 18.4343 152.357 18.3999 152.448 18.3999C152.62 18.3999 152.718 18.503 152.741 18.7035C152.764 18.9098 152.649 19.1389 152.397 19.4082C152.254 19.5514 152.07 19.7347 151.836 19.9696C151.601 20.2044 151.32 20.4393 150.988 20.6742C150.661 20.9091 150.289 21.1096 149.882 21.2757C149.475 21.4418 149.029 21.522 148.542 21.522C148.009 21.522 147.533 21.4132 147.121 21.1955C146.703 20.9778 146.353 20.6856 146.061 20.3247C145.769 19.9638 145.551 19.5399 145.402 19.0473C145.253 18.5546 145.179 18.039 145.179 17.5063V11.5371H143.323V11.5313Z" fill="#1E2E5C"/>
<path id="Vector_10" d="M154.626 7.34945C154.626 6.85106 154.735 6.45006 154.941 6.15217C155.147 5.85428 155.411 5.62514 155.714 5.47047C156.018 5.31579 156.339 5.20695 156.677 5.1554C157.015 5.09811 157.313 5.0752 157.582 5.0752C157.708 5.0752 157.771 5.13821 157.771 5.26424V9.79555C157.771 9.88721 157.794 9.93877 157.84 9.93877C157.868 9.93877 157.903 9.92158 157.931 9.89294C158.166 9.62942 158.493 9.3831 158.905 9.16541C159.323 8.94772 159.827 8.83888 160.423 8.83888C161.019 8.83888 161.592 8.95918 162.136 9.19978C162.686 9.44038 163.167 9.78983 163.591 10.2309C164.015 10.6778 164.353 11.2048 164.611 11.8177C164.869 12.4307 165 13.1124 165 13.8629V21.3329C165 21.459 164.937 21.522 164.811 21.522C164.45 21.522 164.095 21.5048 163.74 21.4762C163.385 21.4475 163.07 21.3616 162.789 21.2184C162.508 21.0752 162.279 20.8689 162.096 20.5825C161.913 20.3018 161.827 19.9065 161.827 19.4081V14.0748C161.827 13.7597 161.798 13.4504 161.735 13.1353C161.672 12.8203 161.569 12.5338 161.431 12.276C161.288 12.0182 161.099 11.812 160.859 11.6516C160.612 11.4969 160.314 11.4167 159.953 11.4167C159.673 11.4167 159.398 11.474 159.134 11.5829C158.865 11.6917 158.63 11.8349 158.43 12.0182C158.223 12.1958 158.063 12.4135 157.948 12.6656C157.828 12.9176 157.771 13.1812 157.771 13.4619V19.4024C157.771 19.918 157.691 20.319 157.536 20.5997C157.381 20.8804 157.169 21.0866 156.9 21.2241C156.631 21.3559 156.322 21.4418 155.961 21.4704C155.6 21.5048 155.216 21.5163 154.809 21.5163C154.683 21.5163 154.62 21.4532 154.62 21.3272V7.34945H154.626Z" fill="#1E2E5C"/>
</g>
<g id="Group 3">
<g id="Group_2">
<g id="KSl4he.tif_1_">
<g id="Group_3">
<path id="Vector_11" d="M14.489 12.5474C13.89 11.8187 13.3435 11.0498 12.8525 10.2439L12.8 10.1575C12.7444 10.0309 12.6858 9.90429 12.6271 9.78078C11.5032 7.47734 11.6545 5.22639 12.9235 3.02793C13.5997 1.85459 14.4828 0.854166 15.5358 0.00195312C15.5543 0.00195312 15.5635 0.00195312 15.5821 0.00504085C16.0483 0.462024 16.5393 0.894306 16.9746 1.37599C17.7713 2.25599 18.3795 3.25642 18.7995 4.368C18.818 4.41432 18.8365 4.45754 18.8612 4.52239C20.6676 3.69487 22.5572 3.37375 24.555 3.5374C24.7156 5.51972 24.4006 7.40324 23.5731 9.22191C25.4288 9.91047 26.9881 11.0282 28.2881 12.5505C26.9974 14.0604 25.4474 15.1843 23.57 15.8729C24.3975 17.6823 24.7156 19.572 24.555 21.5636C22.5696 21.7087 20.683 21.4184 18.8674 20.5724C18.1819 22.3849 17.0704 23.8886 15.5358 25.133C15.2332 24.8551 14.912 24.5926 14.6249 24.2962C13.5689 23.2155 12.7228 21.9989 12.2319 20.5539C11.6545 18.8464 11.7873 17.1821 12.516 15.5487C12.6024 15.3541 12.6981 15.1658 12.7877 14.9743L12.8556 14.8632C13.3466 14.0542 13.8931 13.2792 14.489 12.5474ZM26.244 12.5536C25.2281 11.6519 24.1382 10.9479 22.866 10.5651C22.0972 10.3335 21.316 10.2841 20.5193 10.4385C19.5498 10.6268 18.6729 11.0313 17.8608 11.5778C17.4254 11.8712 17.0179 12.2016 16.5794 12.5319C17.4594 13.3101 18.3734 13.9245 19.417 14.3414C20.2538 14.6748 21.1153 14.8323 22.0045 14.7119C23.6565 14.4865 24.9935 13.6374 26.244 12.5536ZM15.545 13.6034C14.7515 14.5143 14.1061 15.4715 13.6955 16.583C13.3404 17.5433 13.2477 18.5191 13.4732 19.5133C13.6739 20.3995 14.066 21.2023 14.5909 21.9403C14.8812 22.3509 15.2054 22.7338 15.5265 23.1445C16.2768 22.3417 16.8697 21.4987 17.2803 20.5353C17.6817 19.6028 17.8577 18.6302 17.6755 17.6205C17.3915 16.0767 16.5918 14.7953 15.545 13.6034ZM15.5419 1.99354C15.0047 2.54933 14.5508 3.14526 14.1833 3.80295C13.748 4.57796 13.4299 5.39313 13.362 6.29165C13.2694 7.51131 13.6368 8.61054 14.2173 9.65728C14.5816 10.315 15.0232 10.9232 15.5419 11.4821C16.0854 10.8893 16.5424 10.2563 16.916 9.56464C17.3699 8.72478 17.6941 7.84169 17.7373 6.87215C17.7867 5.74204 17.4316 4.71691 16.8789 3.75354C16.5115 3.11747 16.0699 2.53389 15.5419 1.99354ZM18.605 15.6259C19.0712 16.7127 19.2688 17.7934 19.2071 18.9205C19.204 18.9884 19.2626 19.0903 19.3244 19.1242C20.4916 19.7603 21.7513 20.032 23.076 20.1061C23.0822 20.0629 23.0914 20.032 23.0883 20.0042C23.0173 18.7105 22.7425 17.4723 22.1126 16.3299C22.0756 16.2619 21.949 16.2002 21.8687 16.2063C21.0443 16.2681 20.2414 16.16 19.4572 15.9161C19.1885 15.8296 18.923 15.7339 18.605 15.6259ZM23.0945 4.99172C21.7421 5.06891 20.4792 5.33446 19.3151 5.97979C19.2503 6.01685 19.204 6.15271 19.2071 6.23916C19.2379 7.00492 19.17 7.75524 18.9508 8.49012C18.8551 8.81124 18.7408 9.12927 18.6204 9.48128C19.698 9.0212 20.7849 8.8205 21.9212 8.88226C21.9891 8.88534 22.1003 8.80198 22.1311 8.73405C22.3349 8.27397 22.548 7.8139 22.7055 7.33531C22.9525 6.59116 23.0667 5.81614 23.0945 4.99172Z" fill="white"/>
<path id="Vector_12" d="M27.7725 8.11978C28.0905 7.80174 28.424 7.46827 28.7389 7.15332C29.0693 7.48679 29.412 7.83262 29.7393 8.16301C29.4367 8.4656 29.1002 8.80217 28.7729 9.12638C28.4518 8.80525 28.1152 8.4656 27.7725 8.11978Z" fill="white"/>
<path id="Vector_13" d="M30.709 12.5228C31.0332 12.1955 31.3605 11.8682 31.6631 11.5625C32.0058 11.9021 32.3455 12.2418 32.6759 12.5691C32.3764 12.8686 32.0367 13.2083 31.7156 13.5294C31.3914 13.2052 31.0486 12.8655 30.709 12.5228Z" fill="white"/>
<path id="Vector_14" d="M27.7725 16.9476C28.0905 16.6264 28.4271 16.293 28.7389 15.978C29.0631 16.3053 29.3997 16.645 29.7208 16.9661C29.4244 17.2625 29.0817 17.6022 28.7544 17.9264C28.4425 17.6145 28.1028 17.278 27.7725 16.9476Z" fill="white"/>
</g>
</g>
<g id="m4Jpx2.tif_1_">
<g id="Group_4">
<path id="Vector_15" d="M6.71365 8.00215C6.74453 6.58798 5.60516 4.76313 3.37891 4.70137C3.00838 3.67316 3.81119 2.19414 5.00923 1.69702C6.28137 1.1721 8.10313 1.63526 8.7392 3.52495C8.90594 3.48172 9.07268 3.43849 9.25794 3.39218C8.98313 2.41954 8.39338 1.74024 7.51955 1.26473C7.96109 0.585435 8.5632 0.146978 9.34748 0.0234685C9.71801 -0.0351984 10.1071 0.0327316 10.4869 0.0481703C10.6567 0.0543457 10.6999 0.146978 10.6999 0.313715C10.6906 1.12579 10.6968 1.94095 10.6968 2.75302C10.6968 4.47906 10.6968 6.20201 10.6968 7.92805C10.6968 8.02377 10.6968 8.11949 10.6968 8.243C10.0021 7.94966 9.31969 7.84159 8.59408 8.07935C8.64039 8.24609 8.68671 8.40665 8.73611 8.58265C8.91829 8.56412 9.0912 8.53942 9.2672 8.52707C9.71492 8.49619 10.141 8.58265 10.5239 8.81423C10.6042 8.86363 10.6876 8.98714 10.6906 9.07668C10.6999 10.9077 10.6968 12.7418 10.6968 14.5728C10.6968 14.5975 10.6876 14.6222 10.6752 14.6778C9.57289 14.0695 8.41808 13.9429 7.1799 14.261C7.23239 14.4524 7.27871 14.6192 7.32811 14.8013C8.14018 14.5852 8.92755 14.5914 9.70875 14.8631C9.71801 14.8662 9.72727 14.8662 9.73345 14.8693C10.6382 15.1749 10.6968 15.2552 10.6968 16.1939C10.6968 18.1608 10.6968 20.1246 10.6968 22.0915C10.6968 23.7928 9.55127 25.0433 7.85302 25.1329C6.51295 25.2008 5.42916 24.5153 4.96909 23.0579C4.84558 22.6719 4.65414 22.4867 4.24964 22.394C2.6749 22.042 1.78255 20.4056 2.28276 18.8679C2.39083 18.5313 2.29203 18.3152 1.96164 18.1793C0.575249 17.5988 -0.122576 15.9438 0.482618 14.6192C1.12795 15.1811 1.86592 15.5084 2.74283 15.5146C2.74283 15.3293 2.74283 15.1657 2.74283 14.9866C2.52669 14.9465 2.30438 14.9248 2.09441 14.8662C1.03841 14.5821 0.349846 13.9059 0.0904767 12.8468C-0.168892 11.7877 0.133704 10.8707 0.942689 10.1327C1.15574 9.93816 1.19588 9.70349 1.05076 9.45647C0.479531 8.4931 0.525846 7.29507 1.20515 6.40889C1.90915 5.48875 2.85708 5.12131 3.99336 5.35289C5.10186 5.57829 5.93246 6.47373 6.12698 7.57296C6.13007 7.58222 6.13007 7.59149 6.13007 7.60075C6.20109 8.07935 6.20109 8.07935 6.71365 8.00215ZM3.80193 8.86672C3.64754 9.51205 3.76178 10.1049 4.08908 10.6514C4.66031 11.6024 5.5434 12.0162 6.63337 12.0471C6.17021 13.029 5.04319 13.3902 3.82663 12.9518C3.74017 13.1 3.65371 13.2482 3.55491 13.4211C3.6815 13.4798 3.7834 13.5323 3.88838 13.5755C5.13274 14.0634 6.61176 13.4427 7.23239 12.1644C7.31267 12.0008 7.40839 11.9081 7.5813 11.8402C8.38411 11.5253 8.91211 10.9571 9.14061 10.0956C8.94608 10.0524 8.77625 10.0154 8.61261 9.9783C8.14945 11.059 7.31885 11.5932 6.31842 11.4666C5.7719 11.3956 5.28712 11.1887 4.89498 10.7965C4.39477 10.2963 4.22185 9.67879 4.32375 8.98405C4.1354 8.94082 3.97175 8.90377 3.80193 8.86672ZM8.66818 21.8846C8.27913 20.4889 7.4053 19.5811 6.11154 19.0778C6.17021 18.2596 6.41414 17.815 7.26944 16.9627C7.22313 16.8917 7.17681 16.8176 7.12432 16.7435C7.07492 16.6725 7.01934 16.6015 6.96067 16.5243C6.12081 17.1202 5.68235 17.9446 5.53105 18.9265C4.95673 18.8555 4.42256 18.8277 3.87603 18.9883C3.92543 19.1797 3.96866 19.3465 4.01189 19.5163C4.94438 19.3063 5.7966 19.4514 6.58397 19.93C7.37443 20.4086 7.86846 21.1188 8.12474 22.0143C8.31618 21.971 8.47675 21.9309 8.66818 21.8846Z" fill="#1E2E5C"/>
</g>
</g>
</g>
</g>
</g>
</g>
</svg>
