<svg width="30" height="28" viewBox="0 0 30 28" fill="none" xmlns="http://www.w3.org/2000/svg">
<g id="Group-chat">
<path id="Combined Shape" fill-rule="evenodd" clip-rule="evenodd" d="M27.7716 20.8455C28.1568 21.1986 28.7777 20.924 28.7757 20.4015L28.7548 15.0164V6.33224C28.7548 4.73352 27.3409 3.4375 25.5969 3.4375H10.86C9.11599 3.4375 7.70215 4.73352 7.70215 6.33224V10.3125H16.4047C18.3903 10.3125 20 11.9221 20 13.9077V17.9112H24.5705L27.7716 20.8455Z" fill="white"/>
<path id="Combined Shape_2" opacity="0.3" fill-rule="evenodd" clip-rule="evenodd" d="M2.48145 20.6248V14.8957C2.48145 13.63 3.60073 12.604 4.98145 12.604H14.9814C16.3622 12.604 17.4814 13.63 17.4814 14.8957V20.6248C17.4814 21.8905 16.3622 22.9165 14.9814 22.9165H5.12611L3.50852 24.3357C3.12125 24.6755 2.51414 24.4005 2.51414 23.8853V20.9964C2.49263 20.8755 2.48145 20.7513 2.48145 20.6248ZM7.50005 16.6144C7.50005 16.298 7.75655 16.0415 8.07296 16.0415H14.4271C14.7435 16.0415 15 16.298 15 16.6144C15 16.9308 14.7435 17.1873 14.4271 17.1873H8.07296C7.75655 17.1873 7.50005 16.9308 7.50005 16.6144ZM11.823 18.3332C11.5066 18.3332 11.2501 18.5897 11.2501 18.9061C11.2501 19.2225 11.5066 19.479 11.823 19.479H14.4272C14.7436 19.479 15.0001 19.2225 15.0001 18.9061C15.0001 18.5897 14.7436 18.3332 14.4272 18.3332H11.823Z" fill="white"/>
</g>
</svg>
